<svg width="38" height="38" fill="none" xmlns="http://www.w3.org/2000/svg"><path d="M36.378 23.505a2.293 2.293 0 0 0 0-3.243l-11.35-11.35a1.656 1.656 0 0 0-2.43 2.245l10.413 12.215a2.294 2.294 0 0 0 3.367.133ZM14.494 36.378a2.294 2.294 0 0 0 3.244 0l11.35-11.35a1.656 1.656 0 0 0-2.245-2.43L14.628 33.011a2.294 2.294 0 0 0-.134 3.367ZM1.622 14.495a2.293 2.293 0 0 0 0 3.243l11.35 11.35a1.656 1.656 0 0 0 2.43-2.245L4.989 14.63a2.293 2.293 0 0 0-3.367-.134ZM23.506 1.622a2.294 2.294 0 0 0-3.244 0l-11.35 11.35a1.656 1.656 0 0 0 2.245 2.43L23.372 4.989a2.294 2.294 0 0 0 .134-3.367Z" fill="#fff"/><circle cx="18.744" cy="18.744" r="5.744" fill="#fff"/></svg>