<svg xmlns="http://www.w3.org/2000/svg" xmlns:xlink="http://www.w3.org/1999/xlink" version="1.0" viewBox="-350 -100 600 300" color-interpolation-filters="sRGB" style="margin:auto;background-color:#5b8dfc"><g transform="translate(113.751 69.716)" opacity=".55" class="iconmbgsvg"><path class="image-rect" fill="none" d="M0 0h112.5v110.567H0z"/><svg width="112.5" height="110.567" class="image-svg-svg primary" style="overflow:visible"><svg xmlns="http://www.w3.org/2000/svg" viewBox="-0.005 -0.029 77.674 76.34"><path d="M69 40.62a19.31 19.31 0 0 1 7.75 22 19.52 19.52 0 0 1-37.64-1.4c-.2-.88-.26-1.79-.38-2.69.83-.83 1.85-.5 2.81-.45 12 .6 21.12-4.88 26.16-15.73.3-.67.53-1.41 1.3-1.73z" fill="#e98043"/><path d="M24.05 48.69C15.82 50.2 6.91 45.76 2.6 38a21.15 21.15 0 0 1 2.79-24.28c6.86-7.5 17.12-9.14 26.24-4.18-.11 1-.94 1.31-1.61 1.74C17.55 19.24 15 36.91 23.65 47.8a2.06 2.06 0 0 1 .4.89z" fill="#5982f6"/><path d="M24.05 48.69a2.59 2.59 0 0 1-2-1.29c-8.22-11.87-4.7-29.27 7.53-36.93a17.49 17.49 0 0 1 2-.93A21.06 21.06 0 0 1 24 48.69z" fill="#a5e9ef"/><path d="M69 40.62c-2 7.82-7.32 12.85-14.27 16.19a24.39 24.39 0 0 1-16 1.72c-.66-8.25 2.63-14.63 9.68-18.7 6.87-3.96 13.89-3.72 20.59.79z" fill="#fac540"/><path d="M50.05 6.77A14.63 14.63 0 0 1 65.76.36a15.13 15.13 0 0 1 11.56 12.56 14.69 14.69 0 0 1-7.27 14.9c-1-.41-1.13-1.36-1.39-2.21A25.27 25.27 0 0 0 52.1 8.32c-.83-.32-1.79-.46-2.05-1.55z" fill="#aa49f4"/><path d="M50.05 6.77c9 2.49 15.5 7.87 18.82 16.76.51 1.38.79 2.86 1.18 4.29a14.65 14.65 0 0 1-18.57-2.54 14.75 14.75 0 0 1-1.43-18.51z" fill="#ce94c9"/></svg></svg></g></svg>